# xmcd CD database file
#
# Track frame offsets:
#	183
#	32208
#	49658
#	67735
#	94065
#	116470
#	132570
#	156693
#	175133
#	191910
#	215288
#	229488
#
# Disc length: 3283 seconds
#
# Revision: 1
# Processed by: cddbd v1.5.2PL0 Copyright (c) Steve Scherf et al.
# Submitted via: CDex 1.51
#
DISCID=af0cd10c
DTITLE=David Essig - State Of Origin
DYEAR=1993
DGENRE=New Age
TTITLE0=state of origin
TTITLE1=long sweet ride
TTITLE2=blue and lonesome
TTITLE3=ricordando lowell george
TTITLE4=sisters of desmond grew
TTITLE5=leaning on the everlasting arms
TTITLE6=quiet money
TTITLE7=that was before I met you
TTITLE8=villa san giovanni
TTITLE9=weight of experience
TTITLE10=hold fast to the right
TTITLE11=the cross and the fountain
EXTD=YEAR: 1993
EXTT0=
EXTT1=
EXTT2=
EXTT3=
EXTT4=
EXTT5=
EXTT6=
EXTT7=
EXTT8=
EXTT9=
EXTT10=
EXTT11=
PLAYORDER=
